<?xml version="1.0" encoding="utf-8"?>
<!-- Generator: Adobe Illustrator 24.1.3, SVG Export Plug-In . SVG Version: 6.00 Build 0)  -->
<svg version="1.1" id="Calque_1" xmlns="http://www.w3.org/2000/svg" xmlns:xlink="http://www.w3.org/1999/xlink" x="0px" y="0px"
	 viewBox="0 0 339 206" style="enable-background:new 0 0 339 206;" xml:space="preserve">
<style type="text/css">
	.st0{fill:url(#SVGID_1_);}
	.st1{fill:#333333;}
	.st2{fill:url(#SVGID_2_);}
	.st3{fill:url(#SVGID_3_);}
	.st4{fill:url(#SVGID_4_);}
	.st5{fill:url(#SVGID_5_);}
	.st6{fill:#EEEEEF;}
	.st7{fill:url(#SVGID_6_);}
	.st8{fill:url(#SVGID_7_);}
	.st9{fill:url(#SVGID_8_);}
	.st10{fill:url(#SVGID_9_);}
	.st11{fill:url(#SVGID_10_);}
	.st12{fill:url(#SVGID_11_);}
	.st13{fill:url(#SVGID_12_);}
</style>
<g>
	<linearGradient id="SVGID_1_" gradientUnits="userSpaceOnUse" x1="208.6191" y1="128.393" x2="257.9391" y2="128.393">
		<stop  offset="0" style="stop-color:#3456A2"/>
		<stop  offset="1" style="stop-color:#50B3D3"/>
	</linearGradient>
	<path class="st0" d="M257.94,146.65c-0.08,0.11-0.15,0.21-0.23,0.31l-42.84-26.45l-6.25-3.85c2.5-1.03,4.62-2.97,5.82-5.63
		c0.18-0.4,0.33-0.8,0.46-1.2l4.88,4.18L257.94,146.65z"/>
	<path class="st6" d="M214.9,109.83c-0.13,0.4-0.28,0.8-0.46,1.2c-1.2,2.66-3.32,4.6-5.82,5.63c-2.7,1.13-5.85,1.17-8.74-0.14
		c-5.54-2.5-8-9.02-5.5-14.56c2.51-5.54,9.03-8,14.57-5.49C214.09,98.79,216.57,104.58,214.9,109.83z"/>
	<g>
		<linearGradient id="SVGID_2_" gradientUnits="userSpaceOnUse" x1="30.8193" y1="90.869" x2="140.5014" y2="90.869">
			<stop  offset="0" style="stop-color:#1796CE"/>
			<stop  offset="1" style="stop-color:#1476AB"/>
		</linearGradient>
		<path class="st2" d="M56.26,27.27h28.02c35.52,0,56.23,16.44,56.23,49.96c0,50.15-29.21,77.23-69.98,77.23h-39.7L56.26,27.27z
			 M69.94,132.99c24.44,0,43.15-16.98,43.15-54.08c0-21.07-11.69-30.16-29.54-30.16h-4.93L61.9,132.99H69.94z"/>
		<path class="st6" d="M146.19,78.87l6.84-5.36c2.47,3.48,6.19,5.76,10.11,5.76c3.87,0,6.54-1.99,6.54-5.26
			c0-2.4-2.08-3.64-5.3-5.61l-4.29-2.65c-4.11-2.57-6.78-5.84-6.78-11.34c0-7.79,7.05-14.09,15.97-14.09
			c5.34,0,10.29,2.67,13.75,6.88l-6.01,5.62c-2.31-2.43-4.87-4.25-8.16-4.25c-3.74,0-5.78,2.29-5.78,4.88
			c0,2.33,2.12,3.46,5.67,5.68l4.5,2.74c4.38,2.62,6.33,5.54,6.33,10.78c0,8.25-6.75,14.75-17.18,14.75
			C156.48,87.4,150.63,84.95,146.19,78.87z"/>
		<path class="st6" d="M184.73,73.15c0-11.95,8.94-21.99,20.33-21.99c4.34,0,7.51,2.11,9.28,4.27l-5.3,5.64
			c-1.4-1.47-2.64-2.24-4.58-2.24c-5.51,0-9.98,6.41-9.98,14.13c0,4.22,1.94,6.77,5.85,6.77c2.34,0,4.02-1.1,5.5-2.24l3.98,5.89
			c-2.6,1.93-6.17,4.02-11.57,4.02C190.57,87.4,184.73,82.2,184.73,73.15z"/>
		<path class="st6" d="M214.56,73.15c0-13.32,9.85-21.99,19.36-21.99c8.06,0,13.42,5.65,13.42,14.24c0,13.32-9.85,21.99-19.36,21.99
			C219.92,87.4,214.56,81.74,214.56,73.15z M237.7,65.6c0-4.22-1.62-6.77-4.83-6.77c-4.65,0-8.67,6.07-8.67,14.13
			c0,4.22,1.62,6.77,4.83,6.77C233.69,79.73,237.7,73.66,237.7,65.6z"/>
		<path class="st6" d="M257.43,52h7.76l-0.43,6.73h0.28c2.67-4.36,6.59-7.56,10.56-7.56c1.75,0,2.84,0.25,3.61,0.67l-3.13,8.26
			c-0.9-0.51-2.29-0.56-3.43-0.56c-3.05,0-5.9,2.13-8.62,7l-3.88,20.02h-9.53L257.43,52z"/>
		<path class="st6" d="M296.91,51.17c8.25,0,11.27,5.79,11.27,12.96c0,3.26-1.22,6.82-1.75,7.87h-19.69
			c-0.24,5.75,3.23,8.19,7.78,8.19c2.15,0,4.64-1.19,6.34-2.43l3.39,6.01c-2.76,1.95-7.05,3.62-12.39,3.62
			c-8.35,0-14.15-5.54-14.15-14.8C277.71,59.81,287.73,51.17,296.91,51.17z M300.07,66.17c0.16-0.7,0.3-1.61,0.3-2.57
			c0-2.79-1.17-5.11-4.64-5.11c-3.28,0-6.66,2.61-8.24,7.68H300.07z"/>
	</g>
	<path class="st6" d="M285.73,96.08c-0.75,36.21-24.97,69.25-61.6,79.52c-36.73,10.28-74.75-5.52-94.14-36.24
		c2.52-2.99,4.85-6.15,6.99-9.47c8.42,15.29,21.93,26.79,37.68,32.94c0.13,0.07,0.28,0.11,0.41,0.17
		c14.26,5.48,30.33,6.57,46.13,2.16c5.17-1.45,10.06-3.41,14.62-5.84l-6.89-9.51l5.64-4.09l7.28,10.04
		c21.43-14.14,34.18-38.81,33-64.71C278.1,93.28,281.75,94.99,285.73,96.08z"/>
</g>
</svg>
