<?xml version="1.0" encoding="utf-8"?>
<!-- Generator: Adobe Illustrator 24.1.3, SVG Export Plug-In . SVG Version: 6.00 Build 0)  -->
<svg version="1.1" id="Calque_1" xmlns="http://www.w3.org/2000/svg" xmlns:xlink="http://www.w3.org/1999/xlink" x="0px" y="0px"
	 viewBox="0 0 476 291" style="enable-background:new 0 0 476 291;" xml:space="preserve">
<style type="text/css">
	.st0{fill:url(#SVGID_1_);}
	.st1{fill:#333333;}
	.st2{fill:url(#SVGID_2_);}
	.st3{fill:url(#SVGID_3_);}
	.st4{fill:url(#SVGID_4_);}
	.st5{fill:url(#SVGID_5_);}
	.st6{fill:#EEEEEF;}
	.st7{fill:url(#SVGID_6_);}
	.st8{fill:url(#SVGID_7_);}
	.st9{fill:url(#SVGID_8_);}
	.st10{fill:url(#SVGID_9_);}
	.st11{fill:url(#SVGID_10_);}
	.st12{fill:url(#SVGID_11_);}
	.st13{fill:url(#SVGID_12_);}
</style>
<g>
	<linearGradient id="SVGID_1_" gradientUnits="userSpaceOnUse" x1="351.2205" y1="177.4322" x2="405.6905" y2="177.4322">
		<stop  offset="0" style="stop-color:#3456A2"/>
		<stop  offset="1" style="stop-color:#50B3D3"/>
	</linearGradient>
	<path class="st0" d="M405.69,184.77c-0.02,0.13-0.04,0.24-0.08,0.35l-47.47-6.13l-6.92-0.88c1.77-1.88,2.84-4.39,2.84-7.16
		c0-0.41-0.02-0.81-0.07-1.21l5.86,1.7L405.69,184.77z"/>
	<path class="st6" d="M389.79,223.97c-28.58,23.96-70.53,21.8-96.55-3.91c3.02,0.04,7.41-0.33,11.3-2.27
		c12.19,9.79,27.39,14.41,42.44,13.62c0.12,0,0.24-0.01,0.36-0.01c12.98-0.75,25.81-5.53,36.52-14.5c3.78-3.16,7.09-6.68,9.91-10.47
		l-8.22-4.7l3.29-5.75l8.63,4.92c12.4-20.93,11.77-47.95-3.02-68.46c5.47-0.38,6.7-1.6,6.7-1.6v-4.87
		C423.8,156.23,419.09,199.39,389.79,223.97z"/>
	<path class="st6" d="M354.06,170.95c0,2.77-1.07,5.28-2.84,7.16c-1.9,2.03-4.62,3.3-7.63,3.3c-5.78,0-10.46-4.68-10.46-10.46
		c0-5.78,4.68-10.47,10.46-10.47c5.37,0,9.8,4.05,10.4,9.26C354.04,170.14,354.06,170.54,354.06,170.95z"/>
	<g>
		<path class="st6" d="M77.5,57.5h15.77c20,0,31.66,9.25,31.66,28.13c0,28.23-16.44,43.49-39.4,43.49H63.18L77.5,57.5z
			 M85.21,117.03c13.76,0,24.3-9.56,24.3-30.45c0-11.87-6.58-16.98-16.63-16.98H90.1l-9.42,47.43H85.21z"/>
		<path class="st6" d="M140.22,74.6h15.03l-10.91,54.51h-15.03L140.22,74.6z M142.45,59.21c0-4.81,4.15-8.92,9.39-8.92
			c4.11,0,8.15,2.59,8.15,7.28c0,5.13-4.15,8.88-9.39,8.88C146.48,66.45,142.45,64.04,142.45,59.21z"/>
		<path class="st6" d="M155.52,144.86l6.5-10.02c4.14,3.19,8.87,5.73,14.01,5.73c7.15,0,11.9-4.02,14.05-11.41l2.82-9.67
			c-4.89,5.03-10.72,7.9-16.74,7.9c-9.19,0-15.89-6.23-15.89-19.04c0-19.56,13.52-35.06,28.45-35.06c4.9,0,9.54,2.79,11.67,7.16
			h0.26L203,74.6h12.23l-10.74,53.63c-3.27,16.15-13.55,24.24-28.86,24.24C169.21,152.48,161.73,149.86,155.52,144.86z
			 M193.56,108.07l3.36-17.29c-1.84-3.63-4.59-5.22-7.14-5.22c-7.46,0-13.93,9.06-13.93,20.86c0,5.92,2.44,8.69,6.15,8.69
			C185.62,115.11,190.09,113.43,193.56,108.07z"/>
		<path class="st6" d="M229.33,74.6h15.03l-10.91,54.51h-15.03L229.33,74.6z M231.55,59.21c0-4.81,4.15-8.92,9.39-8.92
			c4.11,0,8.15,2.59,8.15,7.28c0,5.13-4.15,8.88-9.39,8.88C235.59,66.45,231.55,64.04,231.55,59.21z"/>
		<path class="st6" d="M252.82,116.02c0-2.34,0.4-4.56,0.8-6.87l4.76-22.82h-7.27l2.25-11.11l8.03-0.62l4.6-14.26h12.6l-2.71,14.26
			h12.33l-2.29,11.73h-12.69l-4.76,23.4c-0.22,1.32-0.26,2.46-0.26,3.63c0,3.6,1.76,5.34,5.7,5.34c1.55,0,3.02-0.56,4.42-1.25
			l2.73,10.56c-2.88,1.1-7.19,2.42-12.8,2.42C257.27,130.44,252.82,124.37,252.82,116.02z"/>
		<linearGradient id="SVGID_2_" gradientUnits="userSpaceOnUse" x1="288.2794" y1="101.8608" x2="343.8949" y2="101.8608">
			<stop  offset="0" style="stop-color:#1796CE"/>
			<stop  offset="1" style="stop-color:#1476AB"/>
		</linearGradient>
		<path class="st2" d="M288.28,110.45c0-20.76,14.06-37.16,29.11-37.16c4.92,0,9.72,2.79,11.85,7.16h0.26l2.34-5.84h12.05
			l-10.91,54.51h-12.23l0.23-7.12h-0.26c-4.95,5.17-11.4,8.44-17.06,8.44C294.07,130.44,288.28,123.3,288.28,110.45z M321.86,110.1
			l3.9-19.32c-1.82-3.63-4.77-5.22-7.33-5.22c-7.57,0-14.59,9.96-14.59,22.97c0,6.68,2.48,9.64,6.37,9.64
			C313.85,118.16,318.35,116.3,321.86,110.1z"/>
		<linearGradient id="SVGID_3_" gradientUnits="userSpaceOnUse" x1="349.5482" y1="91.2873" x2="377.5657" y2="91.2873">
			<stop  offset="0" style="stop-color:#1796CE"/>
			<stop  offset="1" style="stop-color:#1476AB"/>
		</linearGradient>
		<path class="st3" d="M349.55,119.78c0-1.93,0.22-3.93,0.8-6.66l12.19-60.98h15.03L365.2,113.7c-0.22,1.1-0.22,1.58-0.22,2.11
			c0,1.87,0.98,2.53,2.08,2.53c0.62,0,1.02,0,1.94-0.26l-0.46,11.15c-1.82,0.62-4.47,1.2-7.97,1.2
			C352.76,130.44,349.55,126.4,349.55,119.78z"/>
		<linearGradient id="SVGID_4_" gradientUnits="userSpaceOnUse" x1="379.763" y1="91.2873" x2="407.7805" y2="91.2873">
			<stop  offset="0" style="stop-color:#1796CE"/>
			<stop  offset="1" style="stop-color:#1476AB"/>
		</linearGradient>
		<path class="st4" d="M379.76,119.78c0-1.93,0.22-3.93,0.8-6.66l12.19-60.98h15.03l-12.37,61.57c-0.22,1.1-0.22,1.58-0.22,2.11
			c0,1.87,0.98,2.53,2.08,2.53c0.62,0,1.02,0,1.94-0.26l-0.46,11.15c-1.82,0.62-4.47,1.2-7.97,1.2
			C382.97,130.44,379.76,126.4,379.76,119.78z"/>
		<path class="st6" d="M60.58,204.19l10.78-8.46c3.89,5.49,9.76,9.09,15.95,9.09c6.1,0,10.32-3.14,10.32-8.29
			c0-3.79-3.28-5.74-8.36-8.85l-6.77-4.17c-6.48-4.06-10.7-9.2-10.7-17.89c0-12.29,11.12-22.22,25.2-22.22
			c8.43,0,16.24,4.21,21.69,10.85l-9.48,8.86c-3.64-3.84-7.68-6.71-12.87-6.71c-5.91,0-9.11,3.62-9.11,7.7
			c0,3.68,3.35,5.47,8.94,8.96l7.1,4.32c6.9,4.14,9.98,8.74,9.98,17.01c0,13.02-10.65,23.27-27.1,23.27
			C76.82,217.64,67.59,213.79,60.58,204.19z"/>
		<path class="st6" d="M121.38,195.17c0-18.85,14.1-34.68,32.07-34.68c6.84,0,11.84,3.32,14.63,6.73l-8.35,8.9
			c-2.21-2.33-4.16-3.54-7.22-3.54c-8.68,0-15.74,10.12-15.74,22.29c0,6.65,3.06,10.67,9.23,10.67c3.68,0,6.35-1.73,8.67-3.54
			l6.29,9.3c-4.1,3.04-9.73,6.33-18.25,6.33C130.59,217.64,121.38,209.44,121.38,195.17z"/>
		<path class="st6" d="M168.45,195.17c0-21.01,15.54-34.68,30.55-34.68c12.72,0,21.16,8.92,21.16,22.47
			c0,21.01-15.54,34.68-30.55,34.68C176.89,217.64,168.45,208.72,168.45,195.17z M204.95,183.25c0-6.65-2.56-10.67-7.62-10.67
			c-7.34,0-13.67,9.58-13.67,22.29c0,6.65,2.56,10.67,7.62,10.67C198.62,205.55,204.95,195.97,204.95,183.25z"/>
		<path class="st6" d="M236.07,161.81h12.23l-0.67,10.61h0.44c4.21-6.88,10.39-11.93,16.66-11.93c2.77,0,4.49,0.4,5.7,1.06
			l-4.94,13.04c-1.42-0.8-3.61-0.88-5.4-0.88c-4.81,0-9.31,3.36-13.6,11.04l-6.13,31.58h-15.03L236.07,161.81z"/>
		<path class="st6" d="M298.35,160.49c13.02,0,17.78,9.14,17.78,20.45c0,5.15-1.93,10.76-2.77,12.41H282.3
			c-0.38,9.07,5.09,12.92,12.28,12.92c3.39,0,7.32-1.87,10-3.83l5.34,9.48c-4.36,3.08-11.12,5.71-19.55,5.71
			c-13.17,0-22.31-8.74-22.31-23.35C268.06,174.11,283.86,160.49,298.35,160.49z M303.34,184.16c0.26-1.11,0.48-2.55,0.48-4.06
			c0-4.39-1.85-8.06-7.31-8.06c-5.18,0-10.51,4.12-13,12.12H303.34z"/>
	</g>
</g>
</svg>
